<?xml version="1.0" encoding="UTF-8"?>
<svg version="1.1" xmlns="http://www.w3.org/2000/svg" width="1024" height="936">
<path d="M0 0 C337.92 0 675.84 0 1024 0 C1024 308.88 1024 617.76 1024 936 C686.08 936 348.16 936 0 936 C0 627.12 0 318.24 0 0 Z " fill="#2D3453" transform="translate(0,0)"/>
<path d="M0 0 C34.00232654 -0.1209091 34.00232654 -0.1209091 48.32226562 -0.14648438 C58.18437414 -0.16424016 68.04640539 -0.18503936 77.90844727 -0.22631836 C85.09300708 -0.25637584 92.27750382 -0.27561149 99.46212476 -0.28226548 C103.26049996 -0.28615029 107.05869484 -0.29517285 110.8570118 -0.31719017 C114.44473571 -0.33781487 118.032208 -0.34378244 121.61998558 -0.33932304 C123.53870256 -0.34051976 125.45739324 -0.35652405 127.3760376 -0.3732605 C154.39156252 -0.27898536 179.25125802 10.79099044 199 29 C199.76054687 29.680625 200.52109375 30.36125 201.3046875 31.0625 C220.29438847 48.93515974 230.28870221 74.4725193 231.390625 100.34375 C231.80726642 123.16287996 227.3160814 142.20248184 216 162 C215.65912354 162.60956543 215.31824707 163.21913086 214.96704102 163.84716797 C204.01596829 183.33940223 186.37669852 197.28178167 166 206 C165.34 206 164.68 206 164 206 C165.24713045 210.57281166 166.68820229 212.71756423 170 216 C171.10547504 217.59347754 172.16160273 219.22191571 173.17578125 220.875 C175.87111054 225.20244911 178.61223256 229.49346011 181.41796875 233.75 C182.20014996 234.93902253 182.98229455 236.12806914 183.7644043 237.31713867 C184.16074066 237.9193222 184.55707703 238.52150574 184.96542358 239.14193726 C191.09174821 248.45649026 197.2014252 257.78200409 203.1875 267.1875 C203.68596436 267.96416016 204.18442871 268.74082031 204.69799805 269.54101562 C208 274.76284191 208 274.76284191 208 277 C208.66 277 209.32 277 210 277 C213 282.75 213 282.75 213 285 C213.66 285 214.32 285 215 285 C216.77722423 287.50937985 218.43465977 290.02062227 220.0625 292.625 C221.04937506 294.18105562 222.03635594 295.73704412 223.0234375 297.29296875 C223.7673877 298.47318604 223.7673877 298.47318604 224.52636719 299.67724609 C225.90849633 301.85577105 227.31132452 304.01865954 228.7265625 306.17578125 C229.14284912 306.81241699 229.55913574 307.44905273 229.98803711 308.10498047 C230.77520565 309.30760353 231.56499898 310.50851348 232.35766602 311.70751953 C235 315.77536319 235 315.77536319 235 318 C225.67318097 318.39555341 216.34928231 318.6967205 207.01587963 318.88080692 C202.68048832 318.96921356 198.35086686 319.08882375 194.01879883 319.2824707 C166.08713413 320.4988093 166.08713413 320.4988093 159.40509033 316.41351318 C155.56398399 312.60326478 153.58899921 308.32980335 151.87513733 303.26142883 C150.34793606 299.31501166 147.89337081 295.96553805 145.5 292.5 C142.7578245 288.26421402 140.01681459 284.02773544 137.28515625 279.78515625 C131.48026009 270.77741515 125.58843131 261.83199993 119.62890625 252.92578125 C119.18305176 252.25756348 118.73719727 251.5893457 118.27783203 250.90087891 C117.44906965 249.66802756 116.61196272 248.44072918 115.76513672 247.22021484 C113 243.20779399 113 243.20779399 113 241 C112.34 241 111.68 241 111 241 C109.43399609 238.69543064 107.98672964 236.39066136 106.5625 234 C88.36765748 204.19078858 63.04256322 165.68085441 28 154 C28 153.34 28 152.68 28 152 C29.92320824 152.00119339 29.92320824 152.00119339 31.88526917 152.00241089 C44.02160407 152.00602733 56.15751747 151.97800545 68.29371738 151.9197216 C74.53176831 151.89076097 80.7694461 151.87259936 87.00756836 151.87988281 C93.0379181 151.8865136 99.06753293 151.86377774 105.09773064 151.82144547 C107.38795286 151.81038088 109.67825023 151.80955335 111.96847725 151.81957626 C129.02513426 151.88459988 144.18738745 150.68266719 157 138 C166.57588185 127.75514437 169.37927426 116.75858052 169.28515625 103.00390625 C168.88530277 94.67931843 166.21585451 86.51981813 161 80 C160.401875 79.154375 159.80375 78.30875 159.1875 77.4375 C157.26234154 75.29232343 155.59613348 73.92694195 153.25 72.3125 C152.1775 71.549375 151.105 70.78625 150 70 C150 69.34 150 68.68 150 68 C149.41992188 67.80664062 148.83984375 67.61328125 148.2421875 67.4140625 C141 65 141 65 138.2057476 63.9641819 C135.00195721 63.00058866 132.48497025 62.7401395 129.15335083 62.7215271 C128.00919205 62.71036362 126.86503326 62.69920013 125.686203 62.68769836 C124.44542496 62.68553818 123.20464691 62.68337799 121.92626953 62.68115234 C120.60866135 62.67110672 119.29105316 62.6610611 117.93351746 62.65071106 C114.33276019 62.62347913 110.7320419 62.60828195 107.1312089 62.59528303 C103.36354016 62.5796226 99.59595065 62.5528417 95.82833862 62.5272522 C88.6993341 62.48051588 81.57031458 62.44374692 74.44123542 62.41057932 C64.80382192 62.36516393 55.16650662 62.3043101 45.5291748 62.24433136 C30.3528325 62.15028626 15.17646181 62.07683261 0 62 C0 41.54 0 21.08 0 0 Z " fill="#F9F9F9" transform="translate(298,348)"/>
<path d="M0 0 C0.89877365 -0.00137466 1.7975473 -0.00274933 2.72355652 -0.00416565 C3.69675842 -0.00057037 4.66996033 0.0030249 5.6726532 0.00672913 C7.22456612 0.00651009 7.22456612 0.00651009 8.80783081 0.00628662 C12.22202157 0.00698238 15.63615754 0.01475908 19.05033875 0.02259827 C21.41973847 0.02446364 23.78913857 0.02588698 26.15853882 0.02688599 C32.39085457 0.03070175 38.62314696 0.04052405 44.85545349 0.05158997 C52.33530952 0.06362408 59.81517337 0.0682108 67.29503632 0.07404327 C78.65489294 0.08373627 90.01469835 0.10289944 101.3745575 0.12025452 C101.3745575 20.25025452 101.3745575 40.38025452 101.3745575 61.12025452 C90.95442078 61.15892639 90.95442078 61.15892639 80.32377625 61.19837952 C75.90772435 61.22356308 71.49173992 61.24990771 67.07572937 61.28041077 C60.07532038 61.3286554 53.07506765 61.37273418 46.07450867 61.39125061 C40.42682249 61.40645866 34.77954673 61.44097817 29.13204384 61.48856354 C26.98366182 61.50333454 24.83522119 61.51129306 22.68678856 61.51213837 C8.15694681 61.52359872 -4.39654956 61.73581084 -15.6254425 72.12025452 C-21.60606454 77.75679391 -21.60606454 77.75679391 -24.6254425 85.12025452 C-25.2854425 85.12025452 -25.9454425 85.12025452 -26.6254425 85.12025452 C-28.12800505 91.6484317 -28.91995176 97.79255683 -28.90391541 104.48503113 C-28.90970781 105.37153913 -28.91550021 106.25804714 -28.92146814 107.17141902 C-28.93833478 110.11159618 -28.94133305 113.05161511 -28.94429016 115.99183655 C-28.95359755 118.11151508 -28.96376743 120.23118998 -28.97473145 122.3508606 C-29.00195398 128.08354897 -29.01715787 133.81621287 -29.03015947 139.54894876 C-29.04582396 145.54807741 -29.07260359 151.54715634 -29.09819031 157.54624939 C-29.1449194 168.89671513 -29.18169191 180.24719028 -29.21486318 191.59770286 C-29.25312606 204.52395906 -29.30252531 217.45016525 -29.35284734 230.37637925 C-29.45607991 256.95763863 -29.54389857 283.53891914 -29.6254425 310.12025452 C-50.4154425 310.12025452 -71.2054425 310.12025452 -92.6254425 310.12025452 C-92.67065681 281.84253103 -92.70747093 253.56483699 -92.72906685 225.28708649 C-92.73936245 212.15610456 -92.75338988 199.02514674 -92.77632141 185.8941803 C-92.79630793 174.44408257 -92.80917141 162.99400231 -92.81361949 151.54388762 C-92.81621798 145.48585057 -92.82228958 139.4278635 -92.83690262 133.36984253 C-92.85056977 127.65717442 -92.85464683 121.94457645 -92.85165787 116.23189354 C-92.85220397 114.14551092 -92.8561266 112.05912573 -92.86385345 109.97275734 C-92.97410283 78.64279996 -86.96728374 52.95158304 -64.99263 29.45619202 C-57.07008367 21.63823375 -48.24335553 15.62185909 -38.6254425 10.12025452 C-38.00540344 9.75802795 -37.38536438 9.39580139 -36.74653625 9.02259827 C-34.1685199 7.92587308 -31.53138262 7.30066666 -28.8105011 6.65589905 C-24.39831346 5.57429685 -20.06538904 4.19954358 -15.71723938 2.88783264 C-14.64506165 2.56782288 -14.64506165 2.56782288 -13.55122375 2.24134827 C-12.59856628 1.95408875 -12.59856628 1.95408875 -11.62666321 1.661026 C-7.72355065 0.60632375 -4.04633706 -0.00479993 0 0 Z " fill="#F9F9F9" transform="translate(639.6254425048828,355.87974548339844)"/>
<path d="M0 0 C1.65 0 3.3 0 5 0 C5 0.66 5 1.32 5 2 C6.3921875 2.2165625 6.3921875 2.2165625 7.8125 2.4375 C11 3 11 3 14 4 C14 4.66 14 5.32 14 6 C14.763125 6.144375 15.52625 6.28875 16.3125 6.4375 C19 7 19 7 22 8 C22 8.66 22 9.32 22 10 C22.69996094 10.24878906 23.39992188 10.49757813 24.12109375 10.75390625 C34.83707603 15.39216724 43.71135101 23.97833531 52 32 C52.72574219 32.69738281 53.45148438 33.39476562 54.19921875 34.11328125 C61.76061883 41.51616141 61.76061883 41.51616141 62.36914349 45.28818893 C62.36499542 46.55473249 62.36499542 46.55473249 62.36076355 47.84686279 C62.36488754 48.81998917 62.36901154 49.79311554 62.3732605 50.79573059 C62.36247467 51.85668442 62.35168884 52.91763824 62.34057617 54.01074219 C62.34123329 55.69410927 62.34123329 55.69410927 62.34190369 57.41148376 C62.33981251 61.12345739 62.3164652 64.83498021 62.29296875 68.546875 C62.28737398 71.11948398 62.28310332 73.69209616 62.28010559 76.26470947 C62.26981883 82.34558332 62.24617106 88.42627093 62.21605712 94.50707459 C62.17922253 102.11015404 62.16281092 109.71325984 62.14648438 117.31640625 C62.11727341 130.87773033 62.057176 144.43870097 62 158 C41.54 158 21.08 158 0 158 C0 105.86 0 53.72 0 0 Z " fill="#F8F8F9" transform="translate(298,508)"/>
<path d="M0 0 C30.69 0 61.38 0 93 0 C93 20.13 93 40.26 93 61 C62.31 61 31.62 61 0 61 C0 40.87 0 20.74 0 0 Z " fill="#F8F9F9" transform="translate(631,478)"/>
<path d="M0 0 C17.42908542 -0.07020467 34.85812645 -0.12304415 52.28732109 -0.15543652 C60.3807232 -0.17087928 68.47403724 -0.191919 76.56738281 -0.22631836 C83.6248112 -0.25630033 90.68217579 -0.27559382 97.7396661 -0.28226548 C101.47360775 -0.28616291 105.20736692 -0.29526775 108.94124985 -0.31719017 C113.11830351 -0.34151367 117.29504363 -0.34196437 121.47216797 -0.34057617 C123.31176338 -0.35675491 123.31176338 -0.35675491 125.18852234 -0.3732605 C132.09344362 -0.34849151 138.6430237 0.05054083 145 3 C145.33 3.66 145.66 4.32 146 5 C144.5629191 5.05422947 143.12524538 5.09289723 141.6875 5.125 C140.88699219 5.14820313 140.08648437 5.17140625 139.26171875 5.1953125 C137 5 137 5 134 3 C130.95005992 1.98335331 128.85954767 1.863174 125.66596985 1.84178162 C124.55959167 1.8319928 123.4532135 1.82220398 122.31330872 1.81211853 C121.0991478 1.80636307 119.88498688 1.8006076 118.6340332 1.79467773 C117.35587738 1.78477814 116.07772156 1.77487854 114.76083374 1.76467896 C111.25494487 1.7376358 107.74904255 1.71662306 104.24310708 1.69667697 C100.57954216 1.67481379 96.91601867 1.64742672 93.25248718 1.62062073 C86.31462177 1.57069834 79.37673335 1.52575783 72.43882293 1.48259836 C64.54044826 1.43322211 56.64211518 1.37830542 48.74378073 1.32291877 C32.49589215 1.20910569 16.24796545 1.10226518 0 1 C0 0.67 0 0.34 0 0 Z " fill="#6A7188" transform="translate(298,410)"/>
<path d="M0 0 C0.66 0.33 1.32 0.66 2 1 C1.67 1.99 1.34 2.98 1 4 C0.34 3.01 -0.32 2.02 -1 1 C-0.67 0.67 -0.34 0.34 0 0 Z M-74 4 C-49.58 4 -25.16 4 0 4 C-0.33 4.66 -0.66 5.32 -1 6 C-24.76 6 -48.52 6 -73 6 C-73.33 5.34 -73.66 4.68 -74 4 Z " fill="#242B47" transform="translate(534,663)"/>
<path d="M0 0 C32.67 0 65.34 0 99 0 C99 0.33 99 0.66 99 1 C67.98 1 36.96 1 5 1 C5 1.66 5 2.32 5 3 C3.35 2.67 1.7 2.34 0 2 C0 1.34 0 0.68 0 0 Z " fill="#CBCCD1" transform="translate(326,500)"/>
<path d="M0 0 C0.99 0.495 0.99 0.495 2 1 C2 1.66 2 2.32 2 3 C26.42 2.67 50.84 2.34 76 2 C76 2.66 76 3.32 76 4 C51.25 4.33 26.5 4.66 1 5 C0.67 3.35 0.34 1.7 0 0 Z " fill="#505770" transform="translate(458,663)"/>
<path d="M0 0 C4.94381496 -0.07481328 9.88729189 -0.12891154 14.83154297 -0.16479492 C16.50933583 -0.17977234 18.18709028 -0.20016154 19.86474609 -0.22631836 C39.20797464 -0.5200958 39.20797464 -0.5200958 46 3 C46.495 3.99 46.495 3.99 47 5 C45.5629191 5.05422947 44.12524538 5.09289723 42.6875 5.125 C41.88699219 5.14820313 41.08648437 5.17140625 40.26171875 5.1953125 C38 5 38 5 35 3 C31.52482871 1.84160957 28.3272998 1.77198782 24.70703125 1.68359375 C24.00100266 1.66281265 23.29497406 1.64203156 22.56755066 1.62062073 C20.31596449 1.55532509 18.06426338 1.49633353 15.8125 1.4375 C14.2844934 1.39429575 12.75649836 1.35068084 11.22851562 1.30664062 C7.48579438 1.19966426 3.7429577 1.09834078 0 1 C0 0.67 0 0.34 0 0 Z " fill="#696E83" transform="translate(397,410)"/>
<path d="M0 0 C4.28553996 0.47957233 6.76931405 3.2187222 9.75 6.0625 C10.25660156 6.53494141 10.76320313 7.00738281 11.28515625 7.49414062 C12.52949613 8.65630711 13.76558064 9.82730161 15 11 C14.67 12.32 14.34 13.64 14 15 C13.40832031 14.39671875 12.81664062 13.7934375 12.20703125 13.171875 C7.26179045 8.15955169 7.26179045 8.15955169 1.9375 3.5625 C1.298125 3.046875 0.65875 2.53125 0 2 C0 1.34 0 0.68 0 0 Z " fill="#333A5A" transform="translate(337,527)"/>
<path d="M0 0 C5.28505421 1.49065632 10.60856257 3.65326242 15 7 C15.76171875 9.1640625 15.76171875 9.1640625 16 11 C14.35 10.34 12.7 9.68 11 9 C11 8.34 11 7.68 11 7 C10.236875 6.855625 9.47375 6.71125 8.6875 6.5625 C6 6 6 6 3 5 C3 4.34 3 3.68 3 3 C1.35 2.67 -0.3 2.34 -2 2 C-1.34 1.34 -0.68 0.68 0 0 Z " fill="#38405D" transform="translate(309,509)"/>
<path d="M0 0 C0 3 0 3 -2.3359375 5.69921875 C-3.34119508 6.70314662 -4.35458968 7.6989775 -5.375 8.6875 C-5.88289062 9.19861328 -6.39078125 9.70972656 -6.9140625 10.23632812 C-10.73300859 14 -10.73300859 14 -13 14 C-13 14.66 -13 15.32 -13 16 C-13.66 15.67 -14.32 15.34 -15 15 C-10.39863498 9.46398272 -5.53601728 4.60136502 0 0 Z " fill="#D6D9DD" transform="translate(584,377)"/>
<path d="M0 0 C5.6759062 0.34750446 9.98235954 1.7747611 14 6 C14 6.99 14 7.98 14 9 C10.82010194 7.46205865 7.78518026 5.743521 4.75 3.9375 C3.85796875 3.41027344 2.9659375 2.88304687 2.046875 2.33984375 C1.37140625 1.89769531 0.6959375 1.45554687 0 1 C0 0.67 0 0.34 0 0 Z " fill="#454C66" transform="translate(475,361)"/>
<path d="M0 0 C0.66 0.33 1.32 0.66 2 1 C0.5 3 0.5 3 -1 5 C-1.515625 5.7425 -2.03125 6.485 -2.5625 7.25 C-3.2740625 8.11625 -3.2740625 8.11625 -4 9 C-4.66 9 -5.32 9 -6 9 C-6.33 9.99 -6.66 10.98 -7 12 C-7.99 12 -8.98 12 -10 12 C-8.52278578 8.54798361 -6.56205999 6.35038064 -3.875 3.75 C-3.15054688 3.04359375 -2.42609375 2.3371875 -1.6796875 1.609375 C-1.12539063 1.07828125 -0.57109375 0.5471875 0 0 Z " fill="#464C68" transform="translate(627,424)"/>
<path d="M0 0 C5.58507504 2.69319824 10.9400039 5.40473961 16 9 C13.39417629 9.93065133 12.35801776 10.14917407 9.75 9.0625 C9.1725 8.711875 8.595 8.36125 8 8 C8 7.34 8 6.68 8 6 C7.236875 5.896875 6.47375 5.79375 5.6875 5.6875 C2.81583516 4.95288806 1.76957906 4.3283935 0 2 C0 1.34 0 0.68 0 0 Z " fill="#343A57" transform="translate(328,502)"/>
<path d="M0 0 C2.64 0.33 5.28 0.66 8 1 C5.53031367 3.46968633 3.42511413 4.06997969 0.125 5.1875 C-0.92429687 5.55230469 -1.97359375 5.91710937 -3.0546875 6.29296875 C-6 7 -6 7 -10 6 C-5.05 4.515 -5.05 4.515 0 3 C0 2.01 0 1.02 0 0 Z " fill="#858B9D" transform="translate(617,357)"/>
<path d="M0 0 C2.79872437 2.52788007 4.45773019 4.20411134 5 8 C5.66 8 6.32 8 7 8 C7.66 9.65 8.32 11.3 9 13 C7.171875 12.7734375 7.171875 12.7734375 5 12 C3.515625 10.0390625 3.515625 10.0390625 2.25 7.625 C1.82203125 6.83351563 1.3940625 6.04203125 0.953125 5.2265625 C0 3 0 3 0 0 Z " fill="#3F445D" transform="translate(404,581)"/>
<path d="M0 0 C0.66 0.99 1.32 1.98 2 3 C1.29875 3.350625 0.5975 3.70125 -0.125 4.0625 C-3.78804241 6.53107206 -6.26396369 9.56820188 -9 13 C-10.32 12.67 -11.64 12.34 -13 12 C-12.31292969 11.38511719 -11.62585938 10.77023437 -10.91796875 10.13671875 C-10.01691406 9.32847656 -9.11585938 8.52023437 -8.1875 7.6875 C-7.29417969 6.88699219 -6.40085937 6.08648438 -5.48046875 5.26171875 C-3.60073214 3.54775419 -1.77407253 1.82122396 0 0 Z " fill="#525973" transform="translate(500,528)"/>
<path d="M0 0 C3.25524265 3.02272532 5.61820737 6.25718301 8 10 C7.67 10.66 7.34 11.32 7 12 C3.34607349 10.7820245 3.04168301 9.85603494 1.25 6.5625 C0.80140625 5.75941406 0.3528125 4.95632813 -0.109375 4.12890625 C-0.40328125 3.42636719 -0.6971875 2.72382812 -1 2 C-0.67 1.34 -0.34 0.68 0 0 Z " fill="#4A5169" transform="translate(413,594)"/>
<path d="M0 0 C3.83146596 1.56096761 6.28148054 3.91411305 9 7 C9.64453125 9.1640625 9.64453125 9.1640625 10 11 C8.8944811 10.06409496 7.79064547 9.12620142 6.6875 8.1875 C6.07261719 7.66542969 5.45773437 7.14335937 4.82421875 6.60546875 C1.48047722 3.6626898 1.48047722 3.6626898 0 2 C0 1.34 0 0.68 0 0 Z " fill="#363F5B" transform="translate(494,373)"/>
<path d="M0 0 C2.91488977 2.6234008 4.88503898 5.71816394 7 9 C6.67 9.66 6.34 10.32 6 11 C2.60582235 7.87378374 0.3937282 5.43458973 -1 1 C-0.67 0.67 -0.34 0.34 0 0 Z " fill="#464B64" transform="translate(436,629)"/>
<path d="M0 0 C3.35250701 0.57575664 4.93818629 1.59306263 7.25 4.0625 C8.03117187 4.88427734 8.03117187 4.88427734 8.828125 5.72265625 C9.21484375 6.14417969 9.6015625 6.56570313 10 7 C9.67 7.99 9.34 8.98 9 10 C7.49410612 8.71520959 5.99542625 7.42195918 4.5 6.125 C3.6646875 5.40570312 2.829375 4.68640625 1.96875 3.9453125 C1.3190625 3.30335938 0.669375 2.66140625 0 2 C0 1.34 0 0.68 0 0 Z " fill="#272E4C" transform="translate(354,521)"/>
<path d="M0 0 C2.91488977 2.6234008 4.88503898 5.71816394 7 9 C6.67 9.66 6.34 10.32 6 11 C0.21293801 5.51752022 0.21293801 5.51752022 -1 2 C-0.67 1.34 -0.34 0.68 0 0 Z " fill="#3F465D" transform="translate(447,646)"/>
<path d="M0 0 C2.91488977 2.6234008 4.88503898 5.71816394 7 9 C6.67 9.66 6.34 10.32 6 11 C0.21293801 5.51752022 0.21293801 5.51752022 -1 2 C-0.67 1.34 -0.34 0.68 0 0 Z " fill="#434960" transform="translate(425,612)"/>
<path d="M0 0 C10.55808656 0.77904328 10.55808656 0.77904328 15 3 C11.98131566 4.50934217 9.32702771 4.17510672 6 4 C4 2.66666667 2 1.33333333 0 0 Z " fill="#4D526C" transform="translate(429,411)"/>
<path d="M0 0 C8.19256018 0.35010941 8.19256018 0.35010941 11.5625 3.0625 C12.036875 3.701875 12.51125 4.34125 13 5 C8.15340923 4.40895235 4.39251833 3.02055843 0 1 C0 0.67 0 0.34 0 0 Z " fill="#3D4560" transform="translate(444,348)"/>
<path d="M0 0 C0.33 0.99 0.66 1.98 1 3 C-0.21484375 5.04296875 -0.21484375 5.04296875 -1.9375 7.1875 C-2.50339844 7.90292969 -3.06929688 8.61835938 -3.65234375 9.35546875 C-4.09707031 9.89816406 -4.54179687 10.44085938 -5 11 C-6 8 -6 8 -5.29296875 6.2109375 C-4.74576172 5.30214844 -4.74576172 5.30214844 -4.1875 4.375 C-3.83042969 3.76398438 -3.47335937 3.15296875 -3.10546875 2.5234375 C-2 1 -2 1 0 0 Z " fill="#363C5B" transform="translate(462,474)"/>
<path d="M0 0 C2.96404505 2.80804268 5.44499019 5.18315774 7 9 C4.625 8.4375 4.625 8.4375 2 7 C0.6875 3.375 0.6875 3.375 0 0 Z " fill="#4B5069" transform="translate(375,540)"/>
<path d="M0 0 C4.59037956 1.14759489 5.33669182 2.29039218 8 6 C7.34 6.66 6.68 7.32 6 8 C4.02 5.36 2.04 2.72 0 0 Z " fill="#343B5A" transform="translate(352,542)"/>
<path d="M0 0 C1.65 1.65 3.3 3.3 5 5 C4.67 5.66 4.34 6.32 4 7 C1 6 1 6 -0.25 4.0625 C-0.4975 3.381875 -0.745 2.70125 -1 2 C-0.67 1.34 -0.34 0.68 0 0 Z " fill="#424861" transform="translate(382,549)"/>
<path d="M0 0 C0.99 0 1.98 0 3 0 C2.01 2.97 1.02 5.94 0 9 C-0.33 9 -0.66 9 -1 9 C-1.125 2.25 -1.125 2.25 0 0 Z " fill="#515770" transform="translate(554,411)"/>
<path d="M0 0 C1.32 0.33 2.64 0.66 4 1 C1.36 2.65 -1.28 4.3 -4 6 C-3 2 -3 2 0 0 Z " fill="#333B58" transform="translate(593,368)"/>
<path d="M0 0 C3 1 3 1 5 3 C5 3.99 5 4.98 5 6 C4.01 6.495 4.01 6.495 3 7 C0 2.25 0 2.25 0 0 Z " fill="#343C59" transform="translate(478,579)"/>
<path d="M0 0 C2.97 0.495 2.97 0.495 6 1 C6 1.66 6 2.32 6 3 C6.66 3.33 7.32 3.66 8 4 C2.25 3.125 2.25 3.125 0 2 C0 1.34 0 0.68 0 0 Z " fill="#3B405C" transform="translate(442,415)"/>
<path d="M0 0 C0.66 0.66 1.32 1.32 2 2 C-2.29 1.67 -6.58 1.34 -11 1 C-11 0.67 -11 0.34 -11 0 C-3.2797546 -1.33619632 -3.2797546 -1.33619632 0 0 Z " fill="#383E5B" transform="translate(438,347)"/>
<path d="M0 0 C0.66 0.33 1.32 0.66 2 1 C1.01 2.485 1.01 2.485 0 4 C-0.16713569 6.62531524 -0.16713569 6.62531524 0 9 C-0.66 8.67 -1.32 8.34 -2 8 C-2.625 4.9375 -2.625 4.9375 -3 2 C-2.01 1.34 -1.02 0.68 0 0 Z " fill="#686F84" transform="translate(465,552)"/>
<path d="M0 0 C2.31 0.33 4.62 0.66 7 1 C7.33 2.32 7.66 3.64 8 5 C4.62496331 3.8141763 2.35277269 2.72426311 0 0 Z " fill="#4A5470" transform="translate(325,520)"/>
</svg>
